<svg width="51" height="32" viewBox="0 0 51 32" fill="none" xmlns="http://www.w3.org/2000/svg">
<path d="M12.9283 32C12.6075 32 12.2759 31.9082 11.9658 31.7247C11.205 31.2746 10.8116 30.4339 10.9648 29.5835C11.1351 28.6327 12.3279 27.5787 13.4176 27.0299C14.3505 26.5527 15.8507 25.9951 17.6439 25.4594C17.7855 25.1981 17.962 24.901 18.1484 24.5872C18.3913 24.1773 18.6413 23.757 18.8107 23.417C18.7282 23.4965 18.644 23.5787 18.558 23.6635C17.7532 24.45 16.8418 25.3414 15.6903 25.4979C15.192 25.566 14.8532 25.4585 14.6839 25.1815C14.3093 24.5671 14.8909 23.3051 15.6329 22.3263C16.0648 21.7574 16.832 20.8249 17.1214 20.9735C17.1591 20.9927 17.185 21.0241 17.1949 21.0652C17.237 21.2313 17.0291 21.5406 16.5909 22.1699C16.3588 22.5037 16.0693 22.9189 15.7799 23.3847C15.4456 23.923 15.3748 24.3443 15.5845 24.5409C15.8032 24.7454 16.2889 24.6807 16.7397 24.388C17.5104 23.8863 18.6825 22.6541 19.5016 21.656C19.766 21.3344 20.0644 21.2287 20.301 21.3737C20.5609 21.5328 20.1469 22.3753 19.1181 24.2044C18.9155 24.5654 18.722 24.908 18.5705 25.1946C20.2015 24.7402 22.545 24.1529 23.9645 23.944C23.9923 23.9396 24.6527 23.8452 24.7146 24.0489C24.7235 24.0768 24.7191 24.1057 24.7038 24.1319C24.6519 24.2175 24.4771 24.2691 24.1034 24.3513C23.3381 24.5199 19.8816 25.3309 18.1404 25.9392C16.098 29.3834 15.0199 30.8359 13.8728 31.6924C13.5977 31.896 13.2697 31.9991 12.9283 32ZM17.1895 26.2827C15.8758 26.7598 14.8201 27.1496 13.6264 27.771C12.3494 28.4361 11.3394 29.6674 11.9622 30.9216C12.2078 31.3087 12.4892 31.4992 12.8198 31.5001C12.8198 31.5001 12.8207 31.5001 12.8216 31.5001C13.5708 31.5001 14.5934 30.4924 15.8614 28.506C16.1742 28.0157 16.6814 27.1837 17.1895 26.2827Z" fill="#6F6F6F"/>
<path d="M0.190099 28.814C0.160525 28.814 0.132744 28.8061 0.106756 28.7912C-0.137 28.6523 0.10586 28.1987 0.156941 28.1096C0.551251 27.4218 0.978719 26.7855 1.41873 26.1397C1.90893 25.4248 2.34984 24.8052 2.76835 24.2441C3.74427 22.9262 4.67359 21.7219 5.60918 20.564L8.53066 16.9572L8.90257 16.5063C9.0352 16.3481 9.16424 16.2091 9.30046 16.0614C9.59261 15.7529 9.85877 15.4776 10.1939 15.2111L10.1984 15.2076C10.3974 15.0546 10.6366 14.8965 10.9028 14.927C11.0623 14.9454 11.212 15.0494 11.281 15.191C11.358 15.3474 11.3491 15.5187 11.3105 15.6839C11.2711 15.8464 11.2075 16.0055 11.1394 16.1584C10.9673 16.543 10.7746 16.8934 10.5909 17.2194C10.3463 17.6529 10.0864 18.0793 9.83457 18.4927C9.69119 18.7278 9.54242 18.9716 9.40083 19.2111C8.94379 19.9732 8.58712 20.6059 8.27884 21.2019C7.94995 21.8443 7.61568 22.5373 7.39791 23.2531C7.33877 23.4532 7.29934 23.6166 7.27514 23.767C7.24288 23.9715 7.23212 24.1331 7.24288 24.2476C7.25632 24.3927 7.30023 24.5317 7.36296 24.6304C7.42659 24.7283 7.50008 24.7842 7.59328 24.8043C7.69185 24.827 7.82986 24.8122 7.97146 24.7632C8.10678 24.7178 8.25733 24.6435 8.41774 24.5421C8.67494 24.3805 8.94468 24.162 9.2673 23.8552C9.74854 23.392 10.2602 22.8677 10.8759 22.2026C11.7075 21.3051 12.515 20.3769 13.1647 19.6315C13.3323 19.4392 13.4882 19.26 13.6307 19.0975C13.6979 19.0206 13.8996 18.921 14.0026 18.9148C14.1308 18.9061 14.284 18.9227 14.3288 19.1272C14.3449 19.1989 14.2912 19.5047 14.2347 19.6175C13.844 20.4032 13.3242 21.6302 13.1799 21.9876C13.0616 22.2734 12.7023 23.1421 12.5177 24.0772C12.4505 24.4154 12.4191 24.7248 12.4263 24.9704C12.4307 25.1198 12.4657 25.4309 12.5213 25.521C12.5849 25.6284 12.6602 25.6931 12.7525 25.7193C12.8519 25.7499 13.0894 25.7394 13.3063 25.6949C13.4129 25.6713 13.5375 25.6293 13.6576 25.59C13.8942 25.5113 14.1173 25.4371 14.2544 25.4746C14.2983 25.4869 14.3306 25.5297 14.3387 25.5716C14.3503 25.6276 14.3216 25.6783 14.2813 25.7158C14.1308 25.8548 13.8117 26.0261 13.5904 26.1117C13.43 26.172 13.0258 26.3092 12.7256 26.2857C12.4424 26.2638 12.1718 26.1126 12.0346 25.902C11.9011 25.708 11.8043 25.4851 11.7559 25.2596C11.6681 24.8043 11.6914 24.314 11.7264 23.9828C11.7757 23.33 12.2488 22.075 12.3438 21.8303C12.4074 21.6651 12.4854 21.4895 12.5679 21.3147C12.1413 21.7988 11.7506 22.2349 11.3778 22.6422C10.7424 23.3317 10.2441 23.8535 9.76109 24.335C9.50478 24.5858 9.19113 24.8751 8.81026 25.1233C8.59608 25.2623 8.40609 25.3584 8.21252 25.4266C7.93382 25.5253 7.67931 25.5489 7.43555 25.4991C7.16222 25.4475 6.89517 25.2623 6.73924 25.0149C6.6084 24.8139 6.52953 24.585 6.49906 24.3167C6.46322 23.8386 6.55911 23.4279 6.66127 23.0477C6.89696 22.2323 7.25005 21.4877 7.56281 20.8532C7.87019 20.2371 8.22417 19.586 8.67852 18.803C8.83715 18.5312 9.00114 18.2594 9.15887 17.9963C9.39097 17.6118 9.63025 17.2141 9.84981 16.82C9.8982 16.7335 9.9448 16.647 9.9914 16.5604C9.97348 16.5797 9.95555 16.5989 9.93763 16.6172C9.78439 16.7833 9.66609 16.917 9.56483 17.0359L9.19471 17.4772L6.24724 21.056C6.10386 21.2317 5.96047 21.4082 5.81619 21.5847C4.99889 22.5863 4.15381 23.6228 3.35444 24.6645C2.43677 25.8688 1.48415 27.1107 0.656998 28.3875L0.650725 28.3971C0.471493 28.6741 0.316457 28.814 0.190099 28.814Z" fill="#6F6F6F"/>
<path d="M35.3892 6.04919V6.53248C40.0994 6.53248 43.9323 10.2695 43.9323 14.8638H44.4278C44.4278 9.99592 40.3808 6.04919 35.3892 6.04919ZM35.3892 23.1951C30.6789 23.1951 26.8461 19.4581 26.8461 14.8638H26.3505C26.3505 19.7316 30.3976 23.6784 35.3892 23.6784" fill="#6F6F6F"/>
<path d="M42.7752 8.55732C42.9822 8.77405 43.2807 9.12363 43.4482 9.336L46.5346 7.42557C46.3805 7.22893 46.1349 6.93004 45.9512 6.71942L43.9967 7.97964L43.8632 8.09151L43.9626 7.94993L44.8256 6.27022L44.2153 5.67506L42.492 6.51667L42.3469 6.61368L42.4625 6.48346L43.7556 4.57827C43.528 4.3895 43.3093 4.21646 43.0306 4.00671L41.0707 7.01394C41.319 7.20009 41.6461 7.47363 41.8549 7.65978L43.6992 6.72641L43.8175 6.64164L43.7305 6.757L42.7752 8.55732Z" fill="#6F6F6F"/>
<path d="M35.7725 4.74605L36.6158 2.90378L36.6696 2.74036L36.6544 2.91077L36.7431 5.37267C37.0388 5.39976 37.3444 5.43996 37.6455 5.4889L37.5084 1.84282C37.0872 1.79737 36.6678 1.76504 36.2484 1.74756L35.4177 3.7585L35.3881 3.90794L35.3585 3.7585L34.5287 1.74756C34.1093 1.76504 33.6899 1.79737 33.2687 1.84282L33.1315 5.4889C33.4327 5.43996 33.7382 5.40063 34.034 5.37267L34.1227 2.91077L34.1075 2.74036L34.1612 2.90378L35.0045 4.74605H35.7725Z" fill="#6F6F6F"/>
<path d="M28.951 7.65185C29.4385 7.15108 29.7145 6.57253 29.227 6.0202C28.9617 5.72044 28.5163 5.6549 28.1471 5.80259L28.1104 5.81658L28.122 5.78511C28.1767 5.64266 28.2116 5.18821 27.8146 4.87447C27.6211 4.72153 27.3782 4.66472 27.1327 4.68919C26.6747 4.73464 26.3225 5.03964 25.3636 6.08225C25.0742 6.39687 24.653 6.89327 24.4003 7.21488L27.0341 9.65143C27.9078 8.70932 28.2636 8.35887 28.951 7.65185ZM25.5151 7.05582C26.0456 6.42309 26.6093 5.84891 26.8647 5.62169C26.9454 5.55002 27.0332 5.47836 27.1398 5.45039C27.3128 5.40408 27.4911 5.52381 27.5315 5.69685C27.5718 5.87076 27.4598 6.03593 27.3352 6.17227C27.0547 6.48077 26.0259 7.53037 26.0259 7.53037L25.5151 7.05582ZM26.5457 8.01017C26.5457 8.01017 27.5476 6.97717 27.8747 6.64682C28.0046 6.51573 28.088 6.4362 28.1776 6.39338C28.2932 6.33832 28.4195 6.32696 28.5325 6.40037C28.6436 6.47291 28.6947 6.59788 28.6669 6.72198C28.6337 6.86967 28.5101 7.01038 28.4079 7.11787C28.2699 7.26207 27.0816 8.5022 27.0798 8.50394L26.5457 8.01017Z" fill="#6F6F6F"/>
<path d="M35.3892 6.04919V14.8638H26.3505C26.3505 9.99242 30.394 6.04919 35.3892 6.04919Z" fill="#0966B0"/>
<path d="M44.4276 14.8639C44.4276 19.7352 40.3841 23.6785 35.3889 23.6785V14.8639H44.4276Z" fill="#0966B0"/>
<path d="M35.3896 29.728C43.8072 29.728 50.6315 23.0729 50.6315 14.864C50.6315 6.65506 43.8072 0 35.3896 0C26.972 0 20.1477 6.65506 20.1477 14.864C20.1477 17.8782 21.0681 20.6818 22.6489 23.024L23.6983 22.8116C22.0852 20.5595 21.1389 17.8197 21.1389 14.864C21.1389 7.18904 27.5186 0.966579 35.3896 0.966579C43.2606 0.966579 49.6403 7.18817 49.6403 14.864C49.6403 22.5398 43.2597 28.7614 35.3896 28.7614C31.6257 28.7614 28.2033 27.3378 25.6564 25.014L24.5407 25.3041C27.3044 28.0343 31.1436 29.728 35.3896 29.728Z" fill="#6F6F6F"/>
</svg>
